<?xml version="1.0" encoding="UTF-8" standalone="no"?>
<!-- Created with Inkscape (http://www.inkscape.org/) -->

<svg
   width="200"
   height="200"
   viewBox="0 0 52.916661 52.916668"
   version="1.1"
   id="svg1392"
   inkscape:version="1.2.2 (732a01da63, 2022-12-09)"
   sodipodi:docname="chorechampion-dark.svg"
   xmlns:inkscape="http://www.inkscape.org/namespaces/inkscape"
   xmlns:sodipodi="http://sodipodi.sourceforge.net/DTD/sodipodi-0.dtd"
   xmlns="http://www.w3.org/2000/svg"
   xmlns:svg="http://www.w3.org/2000/svg"
   xmlns:rdf="http://www.w3.org/1999/02/22-rdf-syntax-ns#"
   xmlns:cc="http://creativecommons.org/ns#"
   xmlns:dc="http://purl.org/dc/elements/1.1/">
  <defs
     id="defs1386" />
  <sodipodi:namedview
     id="base"
     pagecolor="#ffffff"
     bordercolor="#666666"
     borderopacity="1.0"
     inkscape:pageopacity="0.0"
     inkscape:pageshadow="2"
     inkscape:zoom="2.56"
     inkscape:cx="-38.867188"
     inkscape:cy="54.882812"
     inkscape:document-units="mm"
     inkscape:current-layer="layer1"
     showgrid="false"
     units="px"
     fit-margin-top="0"
     fit-margin-left="0"
     fit-margin-right="0"
     fit-margin-bottom="0"
     inkscape:window-width="1920"
     inkscape:window-height="1111"
     inkscape:window-x="-9"
     inkscape:window-y="1071"
     inkscape:window-maximized="1"
     inkscape:showpageshadow="2"
     inkscape:pagecheckerboard="0"
     inkscape:deskcolor="#d1d1d1" />
  <metadata
     id="metadata1389">
    <rdf:RDF>
      <cc:Work
         rdf:about="">
        <dc:format>image/svg+xml</dc:format>
        <dc:type
           rdf:resource="http://purl.org/dc/dcmitype/StillImage" />
      </cc:Work>
    </rdf:RDF>
  </metadata>
  <g
     inkscape:label="Layer 1"
     inkscape:groupmode="layer"
     id="layer1"
     transform="translate(-61.143767,-51.936157)">
    <path
       style="fill:#333333;stroke-width:0.26458335"
       d="m 78.41758,98.815196 c -2.485507,-0.56298 -4.28259,-1.98079 -5.266932,-4.15534 -1.215227,-2.684608 -0.370516,-7.550107 2.277491,-13.118252 l 0.493137,-1.036953 1.712836,0.08334 c 0.94206,0.04584 2.010493,-0.03591 2.374295,-0.181666 0.610405,-0.244552 0.617661,-0.266301 0.09402,-0.281777 -0.958546,-0.02833 -3.980296,-1.053806 -4.323387,-1.467205 -0.386195,-0.465337 0.02994,-2.57752 0.816187,-4.14276 0.608248,-1.21088 1.528774,-1.550556 4.202024,-1.550556 h 2.032792 l 0.284131,-0.925782 c 0.178003,-0.579988 0.189893,-0.984023 0.03183,-1.08171 -0.293177,-0.181193 -2.60635,0.33702 -3.884622,0.87026 -0.483624,0.201747 -1.108703,0.294009 -1.389062,0.205026 -1.21971,-0.387121 -0.150235,-1.816828 1.874105,-2.505362 1.045026,-0.355443 1.25953,-0.499279 0.764486,-0.512627 -0.378468,-0.0102 -1.082722,0.119003 -1.565011,0.28713 -0.781667,0.272491 -0.926748,0.244111 -1.336045,-0.261349 -0.255114,-0.315053 -0.544378,-1.303326 -0.650931,-2.223914 -0.105476,-0.911284 -0.354171,-2.192662 -0.552657,-2.847505 -0.198485,-0.654844 -0.36217,-1.527571 -0.363746,-1.939393 l -0.0029,-0.748767 1.516538,1.351669 c 0.834096,0.743418 1.693078,1.317671 1.908848,1.276117 0.436319,-0.08403 0.683735,-0.889766 0.995262,-3.241188 l 0.20956,-1.58177 1.754023,2.772395 1.754023,2.772395 -0.21152,1.718891 c -0.116336,0.945391 -0.178648,1.751764 -0.138471,1.791942 0.04018,0.04018 0.758228,-1.911217 1.595668,-4.33643 1.918609,-5.556264 2.236237,-6.313318 2.526684,-6.022242 0.128013,0.128291 0.83426,2.306943 1.569437,4.841451 0.735177,2.534507 1.396201,4.66771 1.468942,4.740451 0.07274,0.07274 0.132256,-0.469993 0.132256,-1.206075 0,-1.176098 0.07381,-1.356856 0.608916,-1.491159 0.587469,-0.147445 1.131688,-1.089977 2.465593,-4.270162 l 0.44391,-1.058334 0.530582,2.315104 c 0.318319,1.388932 0.662563,2.315105 0.860488,2.315105 0.181449,0 1.175105,-0.905031 2.208126,-2.011179 1.767944,-1.893097 1.877974,-1.966885 1.874084,-1.256771 -0.002,0.414925 -0.175615,1.468783 -0.38521,2.341908 -0.248039,1.033288 -0.326027,2.207458 -0.223396,3.363327 0.228974,2.578702 -0.172418,3.110999 -2.369921,3.142827 -1.532809,0.0222 -1.583055,0.04137 -0.721505,0.275271 1.780432,0.483366 2.38125,0.816535 2.38125,1.320466 0,0.590046 -0.272584,0.609235 -1.852083,0.130375 -0.654844,-0.19853 -2.053828,-0.44745 -3.108854,-0.553156 -1.89262,-0.189625 -1.918176,-0.183885 -1.914178,0.429974 0.0068,1.041452 0.306607,1.196901 2.641782,1.369672 2.432947,0.180004 3.017642,0.530907 3.32907,1.997929 0.08105,0.381782 0.31496,1.229929 0.519805,1.884773 0.351499,1.123663 0.341374,1.216666 -0.180025,1.653646 -0.303861,0.254661 -0.866705,0.468391 -1.250766,0.474954 -0.384061,0.0066 -1.05548,0.177459 -1.492042,0.379767 -0.747915,0.346593 -0.667234,0.366179 1.397192,0.339184 l 2.190941,-0.02865 1.07307,1.037945 c 1.40764,1.361578 2.43228,3.378579 2.43574,4.794751 0.005,2.056868 -2.49041,4.73034 -4.229482,4.531236 -0.705572,-0.08078 -0.749136,-0.157671 -0.723238,-1.276583 0.01516,-0.654844 0.1055,-1.845469 0.20076,-2.645833 0.152265,-1.279285 0.136142,-1.35925 -0.133374,-0.661459 -0.382659,0.990722 -0.55631,1.10208 -2.056945,1.319059 -0.667149,0.09646 -1.748779,0.315386 -2.403623,0.486498 l -1.190625,0.31111 2.248958,0.132292 2.248959,0.132291 0.141057,1.404131 c 0.239569,2.384753 1.424472,2.518158 4.441603,0.500065 0.62869,-0.420518 1.22299,-0.684662 1.32066,-0.586986 0.0977,0.09768 0.16395,1.099608 0.14729,2.226516 -0.0376,2.545493 -0.63292,3.989282 -2.26017,5.481942 -1.645402,1.50931 -3.455976,2.09132 -6.436274,2.06897 -2.420335,-0.0181 -5.159375,-0.50941 -5.159375,-0.92536 0,-0.12595 0.340677,-0.62009 0.75706,-1.09809 1.197867,-1.37515 1.694957,-2.585703 1.822736,-4.438871 0.106181,-1.539949 0.0321,-1.885444 -0.701098,-3.269607 l -0.819824,-1.547709 0.408009,-1.403501 c 0.492585,-1.694434 0.351104,-2.408625 -0.886669,-4.475887 -0.79764,-1.332175 -0.963846,-1.892837 -1.111233,-3.748516 -0.105202,-1.324552 -0.345686,-2.445127 -0.611954,-2.851503 -0.515212,-0.786313 -0.503712,-0.796155 1.876883,-1.606258 1.438584,-0.489543 1.763243,-0.701298 1.694115,-1.104968 -0.172259,-1.005883 -1.406292,-4.864992 -1.555686,-4.864992 -0.08468,0 -0.07931,0.714375 0.01195,1.587499 l 0.165927,1.5875 -1.252714,0.0029 c -0.688993,0.0016 -1.718109,0.07978 -2.286925,0.173729 l -1.03421,0.170818 0.157065,-1.695084 0.157066,-1.695084 -0.402,1.058334 c -0.370732,0.976012 -1.415585,4.473629 -1.415585,4.73863 0,0.06332 0.39708,0.24617 0.8824,0.40634 1.843969,0.608565 2.801103,2.324993 2.815454,5.048951 0.0043,0.823808 0.304039,1.815673 0.959348,3.175 1.232478,2.556565 1.299684,3.99131 0.260513,5.561602 l -0.73891,1.116568 0.700107,-0.175715 c 0.63707,-0.159896 0.749292,-0.06452 1.246391,1.059251 1.217167,2.751609 0.153955,6.115883 -2.511912,7.948323 -2.293506,1.5765 -6.044243,2.25117 -8.908385,1.60243 z m -2.40915,-3.27771 c -0.482599,-1.398325 -0.406216,-5.161297 0.146607,-7.222462 0.252933,-0.943044 0.866226,-2.722354 1.362873,-3.954021 0.496649,-1.231665 0.902997,-2.335317 0.902997,-2.452559 0,-0.117243 -0.411129,-0.213168 -0.91362,-0.213168 h -0.913619 l -0.82019,2.560465 c -1.177851,3.67701 -1.577546,5.549249 -1.581994,7.410331 -0.0044,1.841304 0.248073,2.680244 1.240806,4.123054 0.829434,1.20548 1.046337,1.11074 0.57614,-0.25164 z m 24.59564,-0.7381 c 1.08896,-1.240265 1.77967,-3.820617 1.13015,-4.22204 -0.38819,-0.239914 -0.79003,0.46632 -0.97549,1.714389 -0.0962,0.647626 -0.46366,1.683514 -0.816505,2.301981 -0.776013,1.36018 -0.442762,1.46374 0.661845,0.20567 z m 0.9739,-8.898212 c 0.2508,-1.141844 -0.0594,-2.149657 -1.20907,-3.928449 -0.81497,-1.260913 -1.175893,-1.600366 -1.701597,-1.600366 -0.366977,0 -0.667229,0.07203 -0.667229,0.160066 0,0.08804 0.359749,0.693114 0.799444,1.344616 1.460052,2.163395 1.900062,3.252939 1.803582,4.466046 -0.0838,1.053536 -0.0578,1.106611 0.3581,0.730255 0.24666,-0.223218 0.5242,-0.750694 0.61677,-1.172168 z M 78.15953,78.38412 c 0.182921,-0.220406 0.392092,-1.232438 0.464823,-2.248958 0.123904,-1.731711 0.09793,-1.84822 -0.411959,-1.84822 -0.572439,0 -0.902996,0.728205 -1.240167,2.732036 -0.24138,1.434538 0.460219,2.241225 1.187303,1.365142 z m 19.148076,-1.724755 c -0.04825,-1.427157 -0.59166,-3.094673 -1.068065,-3.277487 -0.653119,-0.250625 -0.694696,-0.06291 -0.357079,1.61214 0.170926,0.848036 0.36438,1.817684 0.429897,2.154775 0.19989,1.028455 1.032718,0.618898 0.995247,-0.489428 z M 78.40231,66.033468 c 0.01023,-0.246547 -0.261869,-0.774327 -0.604659,-1.172845 l -0.623256,-0.724578 0.336498,1.569719 c 0.185074,0.863346 0.354845,1.629251 0.377269,1.702012 0.07055,0.22892 0.494668,-0.904739 0.514148,-1.374308 z m 20.296603,-1.032493 0.02842,-1.083884 -0.545381,0.545379 c -0.530825,0.530825 -0.532373,0.559751 -0.05804,1.083884 0.268036,0.296178 0.500669,0.538505 0.516959,0.538505 0.0163,0 0.04241,-0.487748 0.05804,-1.083884 z M 88.342782,64.897858 c 0,-0.566314 -0.81779,-0.879167 -1.227402,-0.469555 -0.134835,0.134835 -0.166565,0.449952 -0.07051,0.700261 0.245065,0.638627 1.297915,0.451482 1.297915,-0.230706 z m -7.247913,-2.794143 c -0.243128,-0.608887 -0.260208,-0.590377 -0.275941,0.299026 -0.0092,0.52145 0.07253,1.038769 0.181666,1.149597 0.312694,0.317531 0.380916,-0.730762 0.09427,-1.448623 z m 13.80938,0.286583 c -0.154618,-0.591257 -0.182773,-0.601486 -0.351595,-0.127728 -0.219688,0.616502 -0.01273,1.302859 0.298886,0.99124 0.121432,-0.121432 0.145151,-0.510012 0.05271,-0.863512 z"
       id="path1948"
       inkscape:connector-curvature="0" />
  </g>
</svg>
