<?xml version="1.0" encoding="UTF-8" standalone="no"?>
<!-- Created with Inkscape (http://www.inkscape.org/) -->

<svg
   width="968"
   height="100"
   viewBox="0 0 256.11666 26.458333"
   version="1.1"
   id="svg5"
   inkscape:version="1.2.2 (732a01da63, 2022-12-09)"
   sodipodi:docname="chorechampion-text-dark.svg"
   xmlns:inkscape="http://www.inkscape.org/namespaces/inkscape"
   xmlns:sodipodi="http://sodipodi.sourceforge.net/DTD/sodipodi-0.dtd"
   xmlns="http://www.w3.org/2000/svg"
   xmlns:svg="http://www.w3.org/2000/svg">
  <sodipodi:namedview
     id="namedview7"
     pagecolor="#ffffff"
     bordercolor="#000000"
     borderopacity="0.25"
     inkscape:showpageshadow="2"
     inkscape:pageopacity="0.0"
     inkscape:pagecheckerboard="0"
     inkscape:deskcolor="#d1d1d1"
     inkscape:document-units="mm"
     showgrid="false"
     inkscape:zoom="1"
     inkscape:cx="660"
     inkscape:cy="238.5"
     inkscape:window-width="1920"
     inkscape:window-height="1111"
     inkscape:window-x="-9"
     inkscape:window-y="1071"
     inkscape:window-maximized="1"
     inkscape:current-layer="text119" />
  <defs
     id="defs2">
    <rect
       x="9.5128784"
       y="14.269318"
       width="922.74921"
       height="266.3606"
       id="rect113" />
  </defs>
  <g
     inkscape:label="Layer 1"
     inkscape:groupmode="layer"
     id="layer1">
    <text
       xml:space="preserve"
       transform="scale(0.26458333)"
       id="text111"
       style="font-style:normal;font-variant:normal;font-weight:normal;font-stretch:normal;font-family:Dosis;-inkscape-font-specification:Dosis;white-space:pre;shape-inside:url(#rect113);display:inline;fill:#333333" />
    <g
       aria-label="CHORECHAMPION"
       id="text119"
       style="font-size:35.2778px;font-family:Dosis;-inkscape-font-specification:Dosis;fill:#333333;stroke-width:0.264583">
      <path
         d="m 10.529464,26.33487 q -2.1872236,0 -4.0569471,-0.776112 Q 4.6027935,24.747369 3.4739038,22.983479 2.380292,21.184311 2.380292,18.220976 V 8.4490247 q 0,-2.9633353 1.0936118,-4.7272254 1.1288897,-1.7991679 2.9986131,-2.5752795 1.8697235,-0.81138943 4.0922251,-0.81138943 2.469446,0 4.339169,0.84666723 1.905002,0.8113894 2.963336,2.2930571 1.093612,1.4816677 1.093612,3.563058 0,1.3758342 -0.564445,1.8344456 -0.564445,0.4233337 -1.728612,0.4233337 -0.952501,0 -1.622779,-0.3175003 -0.635001,-0.352778 -0.670279,-1.1288896 0,-0.4233336 -0.141111,-0.9877784 Q 14.1278,6.261801 13.775022,5.6973562 13.422244,5.1329114 12.68141,4.7448556 11.975854,4.3567997 10.705853,4.3567997 q -1.7991678,0 -2.7516684,1.0230563 Q 7.001684,6.3676344 7.001684,8.4490247 v 9.7719513 q 0,2.116668 0.9525006,3.104446 0.9877784,0.987779 2.8222244,0.987779 1.199445,0 1.905001,-0.388056 0.705556,-0.388056 1.023056,-0.952501 0.352778,-0.599722 0.458612,-1.234723 0.141111,-0.635 0.211666,-1.199445 0.07056,-0.846667 0.705557,-1.12889 0.635,-0.3175 1.552223,-0.3175 1.199445,0 1.76389,0.458612 0.564445,0.458611 0.564445,1.799167 0,2.116668 -1.093612,3.70417 -1.058334,1.587501 -2.963336,2.434168 -1.905001,0.846667 -4.374447,0.846667 z"
         style="font-weight:bold;-inkscape-font-specification:'Dosis Bold';fill:#333333"
         id="path443" />
      <path
         d="m 24.393661,26.123203 q -0.846667,0 -1.587501,-0.352778 -0.705556,-0.388056 -0.705556,-1.128889 V 1.7815202 q 0,-0.7761116 0.705556,-1.09361181 0.740834,-0.35277802 1.587501,-0.35277802 0.881945,0 1.587501,0.35277802 0.705556,0.31750021 0.705556,1.09361181 v 9.1722288 h 7.937505 V 1.7815202 q 0,-0.7761116 0.705556,-1.09361181 0.740834,-0.35277802 1.587501,-0.35277802 0.881945,0 1.587501,0.35277802 0.705556,0.31750021 0.705556,1.09361181 V 24.641536 q 0,0.740833 -0.705556,1.128889 -0.705556,0.352778 -1.587501,0.352778 -0.846667,0 -1.587501,-0.352778 -0.705556,-0.388056 -0.705556,-1.128889 V 14.552084 h -7.937505 v 10.089452 q 0,0.740833 -0.705556,1.128889 -0.705556,0.352778 -1.587501,0.352778 z"
         style="font-weight:bold;-inkscape-font-specification:'Dosis Bold';fill:#333333"
         id="path440" />
      <path
         d="m 51.487043,26.33487 q -2.328335,0 -4.198059,-0.776112 -1.869723,-0.811389 -2.998613,-2.575279 -1.093612,-1.799168 -1.093612,-4.762503 V 8.4490247 q 0,-2.9633353 1.093612,-4.7272254 1.12889,-1.7991679 2.963335,-2.5752795 1.869724,-0.81138943 4.233337,-0.81138943 2.328335,0 4.198058,0.81138943 1.905001,0.7761116 2.998613,2.5752795 1.093612,1.7638901 1.093612,4.7272254 v 9.7719513 q 0,2.963335 -1.093612,4.762503 -1.093612,1.76389 -2.998613,2.575279 -1.869723,0.776112 -4.198058,0.776112 z m 0,-4.021669 q 1.728612,0 2.71639,-0.987779 0.987779,-0.987778 0.987779,-3.104446 V 8.4490247 q 0,-2.1166681 -0.987779,-3.1044465 -0.987778,-0.9877785 -2.71639,-0.9877785 -1.728613,0 -2.716391,0.9877785 -0.952501,0.9877784 -0.952501,3.1044465 v 9.7719513 q 0,2.116668 0.952501,3.104446 0.987778,0.987779 2.716391,0.987779 z"
         style="font-weight:bold;-inkscape-font-specification:'Dosis Bold';fill:#333333"
         id="path437" />
      <path
         d="m 77.874819,26.299592 q -0.458611,0 -0.917223,-0.282222 -0.423333,-0.282223 -0.670278,-0.81139 L 71.27787,15.469307 h -2.963335 v 9.172229 q 0,0.740833 -0.705556,1.128889 -0.705556,0.352778 -1.587501,0.352778 -0.846667,0 -1.587501,-0.352778 -0.705556,-0.388056 -0.705556,-1.128889 V 1.7815202 q 0,-0.5997226 0.388056,-1.02305621 0.423333,-0.42333362 1.093612,-0.42333362 h 6.985004 q 2.328335,0 4.198059,0.67027823 1.905001,0.6702782 3.033891,2.2930571 1.128889,1.5875011 1.128889,4.4097252 0,2.0461125 -0.599722,3.4925021 -0.599723,1.411112 -1.658057,2.293057 -1.023056,0.846668 -2.363613,1.270001 l 4.65667,8.572506 q 0.07056,0.141111 0.105833,0.3175 0.03528,0.141111 0.03528,0.246945 0,0.564445 -0.423333,1.128889 -0.423334,0.564445 -1.093612,0.917223 -0.635001,0.352778 -1.340557,0.352778 z M 68.314535,11.870971 h 3.880558 q 1.728613,0 2.751669,-0.846667 1.023056,-0.846667 1.023056,-2.8927795 0,-2.1166681 -1.023056,-2.9280575 -1.023056,-0.8466673 -2.751669,-0.8466673 h -3.880558 z"
         style="font-weight:bold;-inkscape-font-specification:'Dosis Bold';fill:#333333"
         id="path434" />
      <path
         d="m 85.777078,26.123203 q -0.740834,0 -1.375834,-0.352778 -0.635,-0.388056 -0.635,-1.128889 V 1.816798 q 0,-0.7408338 0.635,-1.09361181 0.635,-0.38805582 1.375834,-0.38805582 h 12.558898 q 0.776111,0 1.093611,0.63500043 0.352779,0.6350004 0.352779,1.3405565 0,0.8466672 -0.388056,1.4463898 -0.352778,0.5997226 -1.058334,0.5997226 H 88.352358 V 11.41236 h 5.362226 q 0.705556,0 1.058334,0.564445 0.388056,0.529167 0.388056,1.270001 0,0.599722 -0.352779,1.199445 -0.3175,0.564445 -1.093611,0.564445 h -5.362226 v 7.090838 h 9.983618 q 0.705556,0 1.058334,0.599723 0.388056,0.599722 0.388056,1.446389 0,0.705556 -0.352779,1.340557 -0.3175,0.635 -1.093611,0.635 z"
         style="font-weight:bold;-inkscape-font-specification:'Dosis Bold';fill:#333333"
         id="path431" />
      <path
         d="m 110.01467,26.33487 q -2.18722,0 -4.05695,-0.776112 -1.86972,-0.811389 -2.99861,-2.575279 -1.09361,-1.799168 -1.09361,-4.762503 V 8.4490247 q 0,-2.9633353 1.09361,-4.7272254 1.12889,-1.7991679 2.99861,-2.5752795 1.86973,-0.81138943 4.09223,-0.81138943 2.46944,0 4.33917,0.84666723 1.905,0.8113894 2.96333,2.2930571 1.09362,1.4816677 1.09362,3.563058 0,1.3758342 -0.56445,1.8344456 -0.56444,0.4233337 -1.72861,0.4233337 -0.9525,0 -1.62278,-0.3175003 -0.635,-0.352778 -0.67028,-1.1288896 0,-0.4233336 -0.14111,-0.9877784 -0.10583,-0.5997227 -0.45861,-1.1641675 -0.35278,-0.5644448 -1.09361,-0.9525006 -0.70556,-0.3880559 -1.97556,-0.3880559 -1.79917,0 -2.75167,1.0230563 -0.9525,0.9877784 -0.9525,3.0691687 v 9.7719513 q 0,2.116668 0.9525,3.104446 0.98778,0.987779 2.82223,0.987779 1.19944,0 1.905,-0.388056 0.70555,-0.388056 1.02305,-0.952501 0.35278,-0.599722 0.45861,-1.234723 0.14112,-0.635 0.21167,-1.199445 0.0706,-0.846667 0.70556,-1.12889 0.635,-0.3175 1.55222,-0.3175 1.19945,0 1.76389,0.458612 0.56445,0.458611 0.56445,1.799167 0,2.116668 -1.09362,3.70417 -1.05833,1.587501 -2.96333,2.434168 -1.905,0.846667 -4.37445,0.846667 z"
         style="font-weight:bold;-inkscape-font-specification:'Dosis Bold';fill:#333333"
         id="path428" />
      <path
         d="m 123.87887,26.123203 q -0.84667,0 -1.58751,-0.352778 -0.70555,-0.388056 -0.70555,-1.128889 V 1.7815202 q 0,-0.7761116 0.70555,-1.09361181 0.74084,-0.35277802 1.58751,-0.35277802 0.88194,0 1.5875,0.35277802 0.70555,0.31750021 0.70555,1.09361181 v 9.1722288 h 7.93751 V 1.7815202 q 0,-0.7761116 0.70555,-1.09361181 0.74084,-0.35277802 1.58751,-0.35277802 0.88194,0 1.5875,0.35277802 0.70555,0.31750021 0.70555,1.09361181 V 24.641536 q 0,0.740833 -0.70555,1.128889 -0.70556,0.352778 -1.5875,0.352778 -0.84667,0 -1.58751,-0.352778 -0.70555,-0.388056 -0.70555,-1.128889 V 14.552084 h -7.93751 v 10.089452 q 0,0.740833 -0.70555,1.128889 -0.70556,0.352778 -1.5875,0.352778 z"
         style="font-weight:bold;-inkscape-font-specification:'Dosis Bold';fill:#333333"
         id="path425" />
      <path
         d="m 144.05781,26.123203 q -0.635,0 -1.30528,-0.246944 -0.67028,-0.246945 -1.12889,-0.670279 -0.45861,-0.423333 -0.45861,-0.987778 0,-0.105833 0.0353,-0.352778 l 6.80861,-22.1897372 q 0.24695,-0.7761116 1.09361,-1.16416742 0.88195,-0.38805582 1.86973,-0.38805582 1.02305,0 1.86972,0.38805582 0.84667,0.38805582 1.09361,1.16416742 l 6.80862,22.1897372 q 0.0705,0.246945 0.0705,0.352778 0,0.529167 -0.49389,0.987778 -0.45861,0.423334 -1.12889,0.670279 -0.67027,0.246944 -1.30527,0.246944 -0.56445,0 -0.98778,-0.176389 -0.38806,-0.211667 -0.52917,-0.740834 l -1.34056,-4.691947 h -8.11389 l -1.30528,4.691947 q -0.14111,0.529167 -0.56444,0.740834 -0.42334,0.176389 -0.98778,0.176389 z m 3.84528,-9.207506 h 6.13834 L 150.97226,6.085412 Z"
         style="font-weight:bold;-inkscape-font-specification:'Dosis Bold';fill:#333333"
         id="path422" />
      <path
         d="m 165.50669,26.123203 q -0.84667,0 -1.5875,-0.352778 -0.70556,-0.388056 -0.70556,-1.128889 V 2.6281875 q 0,-1.2700009 0.70556,-1.76389011 0.74083,-0.52916702 1.5875,-0.52916702 0.84667,0 1.41111,0.17638901 0.59972,0.17638901 1.09361,0.70555602 0.52917,0.529167 1.09361,1.5522233 l 4.33917,7.9022273 4.3039,-7.9022273 q 0.635,-1.0230563 1.09361,-1.5522233 0.49389,-0.52916701 1.09361,-0.70555602 0.59972,-0.17638901 1.41111,-0.17638901 0.88195,0 1.5875,0.52916702 0.70556,0.49388921 0.70556,1.76389011 V 24.641536 q 0,0.740833 -0.74084,1.128889 -0.70555,0.352778 -1.55222,0.352778 -0.84667,0 -1.5875,-0.352778 -0.70556,-0.388056 -0.70556,-1.128889 V 9.5073588 l -4.09222,7.3377822 q -0.3175,0.49389 -0.74083,0.740834 -0.42334,0.211667 -0.84667,0.211667 -0.38806,0 -0.81139,-0.211667 -0.38806,-0.211666 -0.70556,-0.740834 L 167.79975,9.2604142 V 24.641536 q 0,0.740833 -0.70556,1.128889 -0.70556,0.352778 -1.5875,0.352778 z"
         style="font-weight:bold;-inkscape-font-specification:'Dosis Bold';fill:#333333"
         id="path419" />
      <path
         d="m 190.16585,26.123203 q -0.84666,0 -1.5875,-0.352778 -0.70555,-0.388056 -0.70555,-1.128889 V 1.7815202 q 0,-0.5997226 0.49388,-1.02305621 0.49389,-0.42333362 1.27001,-0.42333362 h 7.05556 q 2.25778,0 4.05694,0.77611163 1.83445,0.7761116 2.89278,2.5400017 1.05834,1.7286123 1.05834,4.621392 v 0.2116668 q 0,2.8927795 -1.09361,4.6566695 -1.09362,1.76389 -2.99862,2.57528 -1.86972,0.776111 -4.19806,0.776111 h -3.95111 v 8.149173 q 0,0.740833 -0.70556,1.128889 -0.70555,0.352778 -1.5875,0.352778 z m 2.29306,-13.229175 h 3.95111 q 1.76389,0 2.71639,-0.987779 0.98778,-1.023056 0.98778,-3.0691685 V 8.4490247 q 0,-2.0813903 -0.98778,-3.0691687 -0.9525,-1.0230563 -2.71639,-1.0230563 h -3.95111 z"
         style="font-weight:bold;-inkscape-font-specification:'Dosis Bold';fill:#333333"
         id="path416" />
      <path
         d="m 209.81556,26.123203 q -0.84667,0 -1.5875,-0.352778 -0.70556,-0.388056 -0.70556,-1.128889 V 1.7815202 q 0,-0.7761116 0.70556,-1.09361181 0.74083,-0.35277802 1.5875,-0.35277802 0.88194,0 1.5875,0.35277802 0.70555,0.31750021 0.70555,1.09361181 V 24.641536 q 0,0.740833 -0.70555,1.128889 -0.70556,0.352778 -1.5875,0.352778 z"
         style="font-weight:bold;-inkscape-font-specification:'Dosis Bold';fill:#333333"
         id="path413" />
      <path
         d="m 224.38527,26.33487 q -2.32834,0 -4.19806,-0.776112 -1.86973,-0.811389 -2.99862,-2.575279 -1.09361,-1.799168 -1.09361,-4.762503 V 8.4490247 q 0,-2.9633353 1.09361,-4.7272254 1.12889,-1.7991679 2.96334,-2.5752795 1.86972,-0.81138943 4.23334,-0.81138943 2.32833,0 4.19805,0.81138943 1.90501,0.7761116 2.99862,2.5752795 1.09361,1.7638901 1.09361,4.7272254 v 9.7719513 q 0,2.963335 -1.09361,4.762503 -1.09361,1.76389 -2.99862,2.575279 -1.86972,0.776112 -4.19805,0.776112 z m 0,-4.021669 q 1.72861,0 2.71639,-0.987779 0.98778,-0.987778 0.98778,-3.104446 V 8.4490247 q 0,-2.1166681 -0.98778,-3.1044465 -0.98778,-0.9877785 -2.71639,-0.9877785 -1.72862,0 -2.71639,0.9877785 -0.9525,0.9877784 -0.9525,3.1044465 v 9.7719513 q 0,2.116668 0.9525,3.104446 0.98777,0.987779 2.71639,0.987779 z"
         style="font-weight:bold;-inkscape-font-specification:'Dosis Bold';fill:#333333"
         id="path410" />
      <path
         d="m 238.9197,26.123203 q -0.84667,0 -1.5875,-0.352778 -0.70556,-0.388056 -0.70556,-1.128889 V 1.7815202 q 0,-0.7408338 0.70556,-1.09361181 0.74083,-0.35277802 1.5875,-0.35277802 0.84667,0 1.37583,0.17638901 0.56445,0.17638901 1.02306,0.70555602 0.49389,0.4938892 1.02305,1.5522233 l 6.80862,13.1586203 V 1.7815202 q 0,-0.7761116 0.70556,-1.09361181 0.74083,-0.35277802 1.5875,-0.35277802 0.88194,0 1.5875,0.35277802 0.70555,0.31750021 0.70555,1.09361181 V 24.641536 q 0,0.740833 -0.70555,1.128889 -0.70556,0.352778 -1.5875,0.352778 -0.81139,0 -1.51695,-0.3175 -0.67028,-0.3175 -1.09361,-1.12889 l -7.62,-14.181676 v 14.146399 q 0,0.740833 -0.70556,1.128889 -0.70556,0.352778 -1.5875,0.352778 z"
         style="font-weight:bold;-inkscape-font-specification:'Dosis Bold';fill:#333333"
         id="path407" />
    </g>
  </g>
</svg>
